<?xml version="1.0" encoding="UTF-8"?><svg id="Camada_2" xmlns="http://www.w3.org/2000/svg" viewBox="0 0 182.91 106.31"><defs><style>.cls-1{fill:#1d1d1b;}</style></defs><g id="Camada_1-2"><path class="cls-1" d="M114.32,0h53.35V15.19h-53.35V0Zm-41.83,48.81c4.46-2.16,14.5-7.09,14.5-21.69C87-.35,56.88,0,51.31,0H0V106.31H53.54c4.46,0,37.92-1.26,37.92-30.39,0-18.79-12.27-24.94-18.96-27.11ZM22.86,18.44h22.31c2.23,0,16.73,.79,16.73,11.94s-11.15,13.01-14.5,13.01H22.86V18.44Zm25.42,69.42H22.63v-29.28h25.66c5.57,0,17.84,1.8,17.84,15.19s-15.62,14.09-17.84,14.09Zm107.47-1.34c-3.54,2.19-7.08,3.31-11.81,3.31-17.73,0-21.26-14.89-21.26-21.49h60.21c0-6.6,0-11.47-1.18-16.98-1.19-5.5-9.26-28.59-38.95-28.59-41.5,0-43.7,36.28-43.7,41.76s1.19,12.1,3.56,16.48c2.35,5.5,4.72,9.9,8.26,13.18,3.54,3.3,8.25,6.58,12.98,8.79,5.9,2.21,11.81,3.31,17.71,3.31,9.44,0,17.71-2.19,24.79-6.59,7.1-4.4,11.81-10.99,15.35-19.79h-20.07c-1.18,2.2-2.36,4.39-5.9,6.6Zm-12.99-48.35c11.57,0,16.52,12.09,17.7,17.57h-37.77c0-1.09,2.83-17.57,20.07-17.57Z"/></g></svg>