<?xml version="1.0" encoding="UTF-8"?><svg id="Camada_2" xmlns="http://www.w3.org/2000/svg" viewBox="0 0 143.85 106.66"><defs><style>.cls-1{fill:#fff;}.cls-2{fill:#1d1d1b;}</style></defs><g id="Camada_1-2"><g><path class="cls-2" d="M140.62,88.53c-1.43,7.47-7.53,13.15-15.07,14.22-11.84,1.78-31.57,3.91-53.81,3.91s-41.61-2.13-53.81-3.91c-7.53-1.07-13.63-6.76-15.07-14.22-1.43-8.18-2.87-20.27-2.87-35.2S1.43,26.31,2.87,18.13c1.43-7.47,7.53-13.15,15.07-14.22C29.77,2.13,49.51,0,71.75,0s41.61,2.13,53.81,3.91c7.53,1.07,13.63,6.76,15.07,14.22,1.43,8.18,3.23,20.27,3.23,35.2-.36,14.93-1.79,27.02-3.23,35.2Z"/><path class="cls-1" d="M57.4,78.22V28.44l43.05,24.89-43.05,24.89Z"/></g></g></svg>