<?xml version="1.0" encoding="UTF-8"?><svg id="Camada_2" xmlns="http://www.w3.org/2000/svg" viewBox="0 0 106.31 106.31"><defs><style>.cls-1{fill:#1d1d1b;}</style></defs><g id="Camada_1-2"><g><path class="cls-1" d="M53.16,81.78c-15.78,0-28.62-12.84-28.62-28.62s12.84-28.62,28.62-28.62,28.62,12.84,28.62,28.62-12.84,28.62-28.62,28.62Zm0-49.07c-11.27,0-20.44,9.17-20.44,20.44s9.17,20.44,20.44,20.44,20.44-9.17,20.44-20.44-9.17-20.44-20.44-20.44Z"/><circle class="cls-1" cx="83.82" cy="22.49" r="6.13"/><path class="cls-1" d="M77.69,106.31H28.62c-15.78,0-28.62-12.84-28.62-28.62V28.62C0,12.84,12.84,0,28.62,0h49.07c15.78,0,28.62,12.84,28.62,28.62v49.07c0,15.78-12.84,28.62-28.62,28.62ZM28.62,8.18c-11.27,0-20.44,9.17-20.44,20.44v49.07c0,11.27,9.17,20.44,20.44,20.44h49.07c11.27,0,20.44-9.17,20.44-20.44V28.62c0-11.27-9.17-20.44-20.44-20.44H28.62Z"/></g></g></svg>