<?xml version="1.0" encoding="UTF-8"?><svg id="Camada_2" xmlns="http://www.w3.org/2000/svg" viewBox="0 0 106.31 106.31"><defs><style>.cls-1{fill:#1d1d1b;}</style></defs><g id="Camada_1-2"><path class="cls-1" d="M0,31.01H22.15V106.31H0V31.01Zm11.01-8.86h-.12C4.27,22.15,0,17.22,0,11.07S4.41,0,11.14,0s10.89,4.78,11.01,11.07c0,6.15-4.27,11.08-11.14,11.08ZM106.31,106.31h-22.15v-40.31c0-9.74-5.43-16.38-14.14-16.38-6.65,0-10.25,4.48-11.99,8.81-.64,1.55-.45,5.84-.45,8v39.87h-22.15V31.01h22.15v11.59c3.19-4.94,8.19-11.59,20.99-11.59,15.85,0,27.73,9.97,27.73,32.22v43.08h0Z"/></g></svg>